<svg xmlns="http://www.w3.org/2000/svg" width="1000" height="1000" viewBox="0 0 1000 1000">
<defs>
  <path id="topArc" d="M 117.08 678.56 A 422.50 422.50 0 1 1 882.92 678.56"/>
  <path id="botArc" d="M 41.50 500.00 A 458.50 458.50 0 0 0 958.50 500.00"/>
  <clipPath id="globeClip">
    <circle cx="0" cy="0" r="68"/>
  </clipPath>
</defs>

<circle cx="500" cy="500" r="491" fill="#2E4F3A" stroke="#000000" stroke-width="18"/>
<circle cx="500" cy="500" r="390" fill="#2E4F3A" stroke="#000000" stroke-width="12"/>

<text font-family="Verdana" font-size="52" fill="#F2F2E8" stroke="#000000" stroke-width="4.5" paint-order="stroke fill">
  <textPath href="#topArc" startOffset="50%" text-anchor="middle">WIRELESS AUTONOMOUS TERRESTRIAL NAVIGATION EXPERIMENT</textPath>
</text>

<text font-family="Verdana" font-size="60" fill="#F2F2E8" stroke="#000000" stroke-width="5.5" paint-order="stroke fill">
  <textPath href="#botArc" startOffset="42.5%" text-anchor="end">TORONTO</textPath>
</text>
<text font-family="Verdana" font-size="60" fill="#F2F2E8" stroke="#000000" stroke-width="5.5" paint-order="stroke fill">
  <textPath href="#botArc" startOffset="57.5%" text-anchor="start">CANADA</textPath>
</text>

<g transform="translate(500.0,929.0) scale(13.8686)">
  <path d="M -0.000 1.568 L 0.000 1.568 L 0.000 1.568 L 0.000 1.568 L 0.000 1.568 L 0.000 1.567 L 0.000 1.567 L 0.000 1.567 L 0.001 1.566 L 0.001 1.566 L 0.001 1.565 L 0.001 1.565 L 0.001 1.564 L 0.001 1.564 L 0.001 1.563 L 0.001 1.563 L 0.001 1.562 L 0.001 1.562 L 0.001 1.562 L 0.001 1.562 L 0.001 1.562 L 0.001 1.562 L 0.001 1.562 L 0.001 1.562 L 0.001 1.562 L 0.001 1.563 L 0.001 1.564 L 0.002 1.565 L 0.002 1.566 L 0.002 1.567 L 0.002 1.568 L 0.002 1.569 L 0.003 1.571 L 0.003 1.572 L 0.003 1.574 L 0.004 1.576 L 0.004 1.578 L 0.005 1.579 L 0.005 1.581 L 0.005 1.583 L 0.006 1.585 L 0.006 1.586 L 0.007 1.588 L 0.007 1.589 L 0.008 1.591 L 0.008 1.592 L 0.009 1.593 L 0.009 1.594 L 0.009 1.595 L 0.010 1.596 L 0.010 1.597 L 0.011 1.597 L 0.011 1.597 L 0.011 1.598 L 0.011 1.598 L 0.012 1.598 L 0.012 1.598 L 0.012 1.597 L 0.012 1.597 L 0.012 1.597 L 0.012 1.597 L 0.013 1.596 L 0.013 1.596 L 0.013 1.596 L 0.013 1.596 L 0.013 1.596 L 0.014 1.597 L 0.014 1.597 L 0.014 1.598 L 0.015 1.598 L 0.015 1.599 L 0.016 1.601 L 0.017 1.602 L 0.018 1.604 L 0.019 1.606 L 0.020 1.608 L 0.021 1.610 L 0.022 1.612 L 0.023 1.615 L 0.024 1.618 L 0.026 1.620 L 0.027 1.623 L 0.029 1.626 L 0.030 1.629 L 0.032 1.632 L 0.033 1.635 L 0.035 1.638 L 0.037 1.641 L 0.038 1.643 L 0.040 1.646 L 0.041 1.648 L 0.043 1.650 L 0.044 1.652 L 0.045 1.653 L 0.046 1.655 L 0.047 1.656 L 0.048 1.656 L 0.049 1.657 L 0.049 1.657 L 0.050 1.656 L 0.050 1.656 L 0.050 1.655 L 0.051 1.654 L 0.051 1.653 L 0.051 1.652 L 0.050 1.651 L 0.050 1.650 L 0.050 1.648 L 0.050 1.647 L 0.050 1.645 L 0.050 1.644 L 0.050 1.643 L 0.050 1.642 L 0.050 1.641 L 0.050 1.641 L 0.050 1.641 L 0.051 1.641 L 0.052 1.641 L 0.053 1.642 L 0.054 1.642 L 0.055 1.644 L 0.056 1.645 L 0.058 1.647 L 0.060 1.649 L 0.062 1.652 L 0.064 1.654 L 0.067 1.657 L 0.069 1.660 L 0.072 1.663 L 0.074 1.666 L 0.077 1.669 L 0.080 1.672 L 0.082 1.674 L 0.085 1.677 L 0.087 1.679 L 0.090 1.681 L 0.092 1.683 L 0.094 1.684 L 0.095 1.686 L 0.097 1.686 L 0.098 1.686 L 0.098 1.686 L 0.099 1.685 L 0.099 1.684 L 0.098 1.682 L 0.097 1.680 L 0.096 1.677 L 0.095 1.674 L 0.093 1.671 L 0.091 1.667 L 0.089 1.663 L 0.086 1.659 L 0.084 1.655 L 0.081 1.650 L 0.078 1.646 L 0.075 1.642 L 0.072 1.638 L 0.070 1.634 L 0.067 1.630 L 0.065 1.627 L 0.063 1.624 L 0.061 1.622 L 0.060 1.620 L 0.059 1.618 L 0.059 1.617 L 0.059 1.617 L 0.060 1.617 L 0.061 1.618 L 0.063 1.619 L 0.065 1.621 L 0.068 1.623 L 0.071 1.626 L 0.075 1.629 L 0.079 1.632 L 0.083 1.636 L 0.088 1.639 L 0.092 1.643 L 0.097 1.647 L 0.102 1.651 L 0.107 1.655 L 0.111 1.658 L 0.116 1.661 L 0.120 1.664 L 0.123 1.667 L 0.127 1.668 L 0.129 1.670 L 0.131 1.671 L 0.132 1.671 L 0.133 1.670 L 0.133 1.669 L 0.132 1.667 L 0.131 1.665 L 0.128 1.662 L 0.125 1.658 L 0.122 1.655 L 0.118 1.650 L 0.113 1.646 L 0.109 1.641 L 0.103 1.636 L 0.098 1.631 L 0.093 1.626 L 0.088 1.621 L 0.083 1.617 L 0.078 1.612 L 0.074 1.609 L 0.071 1.606 L 0.068 1.603 L 0.067 1.602 L 0.066 1.601 L 0.067 1.601 L 0.069 1.602 L 0.072 1.604 L 0.077 1.607 L 0.083 1.610 L 0.090 1.615 L 0.099 1.621 L 0.109 1.627 L 0.121 1.634 L 0.134 1.642 L 0.147 1.650 L 0.162 1.659 L 0.178 1.668 L 0.194 1.677 L 0.211 1.687 L 0.228 1.697 L 0.246 1.706 L 0.263 1.715 L 0.280 1.724 L 0.296 1.732 L 0.312 1.740 L 0.327 1.747 L 0.342 1.754 L 0.355 1.759 L 0.367 1.764 L 0.377 1.768 L 0.386 1.771 L 0.394 1.773 L 0.400 1.774 L 0.405 1.774 L 0.408 1.774 L 0.410 1.772 L 0.412 1.771 L 0.412 1.768 L 0.411 1.766 L 0.410 1.763 L 0.408 1.759 L 0.406 1.756 L 0.405 1.753 L 0.404 1.750 L 0.403 1.748 L 0.404 1.746 L 0.406 1.745 L 0.410 1.744 L 0.415 1.744 L 0.423 1.746 L 0.432 1.748 L 0.445 1.751 L 0.459 1.755 L 0.477 1.760 L 0.497 1.767 L 0.520 1.774 L 0.546 1.782 L 0.575 1.791 L 0.606 1.801 L 0.639 1.811 L 0.674 1.822 L 0.712 1.833 L 0.750 1.844 L 0.790 1.856 L 0.831 1.867 L 0.872 1.878 L 0.913 1.889 L 0.954 1.899 L 0.994 1.909 L 1.033 1.917 L 1.070 1.925 L 1.105 1.932 L 1.137 1.937 L 1.167 1.942 L 1.194 1.945 L 1.218 1.946 L 1.238 1.947 L 1.255 1.946 L 1.269 1.944 L 1.278 1.941 L 1.285 1.936 L 1.288 1.931 L 1.289 1.925 L 1.286 1.918 L 1.281 1.910 L 1.274 1.902 L 1.265 1.894 L 1.255 1.885 L 1.245 1.876 L 1.234 1.868 L 1.224 1.859 L 1.215 1.851 L 1.207 1.843 L 1.200 1.836 L 1.197 1.829 L 1.196 1.824 L 1.198 1.818 L 1.204 1.814 L 1.213 1.810 L 1.227 1.808 L 1.244 1.805 L 1.266 1.804 L 1.291 1.803 L 1.320 1.802 L 1.353 1.802 L 1.389 1.803 L 1.428 1.803 L 1.469 1.803 L 1.512 1.804 L 1.556 1.804 L 1.601 1.804 L 1.646 1.803 L 1.690 1.802 L 1.733 1.801 L 1.773 1.798 L 1.811 1.795 L 1.845 1.791 L 1.875 1.787 L 1.900 1.781 L 1.920 1.775 L 1.934 1.768 L 1.942 1.760 L 1.945 1.751 L 1.940 1.742 L 1.930 1.732 L 1.913 1.722 L 1.890 1.711 L 1.861 1.701 L 1.827 1.690 L 1.788 1.679 L 1.744 1.668 L 1.697 1.657 L 1.647 1.646 L 1.594 1.636 L 1.540 1.626 L 1.486 1.617 L 1.432 1.608 L 1.379 1.600 L 1.329 1.592 L 1.281 1.585 L 1.237 1.578 L 1.197 1.572 L 1.162 1.566 L 1.132 1.561 L 1.108 1.556 L 1.091 1.551 L 1.079 1.546 L 1.074 1.541 L 1.075 1.536 L 1.082 1.531 L 1.095 1.526 L 1.114 1.521 L 1.137 1.515 L 1.164 1.509 L 1.195 1.502 L 1.228 1.495 L 1.264 1.488 L 1.299 1.480 L 1.335 1.472 L 1.370 1.464 L 1.403 1.456 L 1.433 1.447 L 1.460 1.439 L 1.481 1.430 L 1.498 1.422 L 1.509 1.414 L 1.513 1.407 L 1.511 1.400 L 1.501 1.395 L 1.485 1.390 L 1.461 1.385 L 1.431 1.382 L 1.393 1.381 L 1.350 1.380 L 1.300 1.380 L 1.246 1.382 L 1.187 1.384 L 1.124 1.388 L 1.060 1.392 L 0.993 1.398 L 0.926 1.404 L 0.860 1.411 L 0.795 1.418 L 0.733 1.425 L 0.675 1.432 L 0.622 1.438 L 0.574 1.444 L 0.532 1.450 L 0.498 1.454 L 0.472 1.457 L 0.453 1.458 L 0.444 1.458 L 0.443 1.457 L 0.450 1.453 L 0.467 1.447 L 0.491 1.439 L 0.524 1.429 L 0.564 1.417 L 0.611 1.403 L 0.664 1.387 L 0.722 1.369 L 0.784 1.349 L 0.849 1.329 L 0.917 1.306 L 0.985 1.283 L 1.053 1.260 L 1.120 1.236 L 1.185 1.212 L 1.246 1.188 L 1.303 1.165 L 1.355 1.143 L 1.402 1.122 L 1.442 1.103 L 1.475 1.085 L 1.500 1.070 L 1.519 1.056 L 1.530 1.045 L 1.533 1.036 L 1.530 1.030 L 1.519 1.026 L 1.502 1.024 L 1.480 1.024 L 1.453 1.026 L 1.422 1.030 L 1.388 1.036 L 1.352 1.042 L 1.315 1.050 L 1.277 1.057 L 1.241 1.065 L 1.208 1.072 L 1.177 1.078 L 1.151 1.083 L 1.129 1.085 L 1.114 1.086 L 1.105 1.084 L 1.103 1.079 L 1.109 1.070 L 1.123 1.058 L 1.144 1.042 L 1.174 1.023 L 1.212 0.999 L 1.258 0.972 L 1.311 0.940 L 1.370 0.905 L 1.436 0.866 L 1.507 0.823 L 1.583 0.778 L 1.661 0.730 L 1.743 0.680 L 1.825 0.629 L 1.908 0.576 L 1.990 0.523 L 2.070 0.470 L 2.147 0.417 L 2.220 0.366 L 2.289 0.316 L 2.351 0.269 L 2.407 0.224 L 2.456 0.183 L 2.497 0.145 L 2.530 0.111 L 2.555 0.082 L 2.571 0.057 L 2.579 0.037 L 2.579 0.021 L 2.572 0.010 L 2.557 0.004 L 2.535 0.001 L 2.507 0.003 L 2.474 0.008 L 2.436 0.016 L 2.395 0.027 L 2.352 0.040 L 2.307 0.054 L 2.261 0.069 L 2.216 0.084 L 2.172 0.099 L 2.131 0.113 L 2.093 0.125 L 2.059 0.134 L 2.030 0.141 L 2.006 0.144 L 1.988 0.143 L 1.976 0.138 L 1.971 0.129 L 1.972 0.115 L 1.979 0.096 L 1.992 0.072 L 2.012 0.043 L 2.037 0.010 L 2.067 -0.027 L 2.101 -0.068 L 2.138 -0.112 L 2.179 -0.160 L 2.221 -0.209 L 2.265 -0.260 L 2.308 -0.312 L 2.350 -0.364 L 2.391 -0.415 L 2.429 -0.464 L 2.464 -0.512 L 2.493 -0.556 L 2.518 -0.596 L 2.537 -0.632 L 2.550 -0.663 L 2.556 -0.688 L 2.555 -0.708 L 2.546 -0.721 L 2.530 -0.727 L 2.507 -0.726 L 2.476 -0.719 L 2.439 -0.705 L 2.394 -0.684 L 2.344 -0.657 L 2.289 -0.624 L 2.229 -0.586 L 2.164 -0.543 L 2.097 -0.496 L 2.027 -0.446 L 1.956 -0.393 L 1.885 -0.339 L 1.813 -0.284 L 1.743 -0.229 L 1.675 -0.175 L 1.610 -0.123 L 1.548 -0.073 L 1.491 -0.027 L 1.438 0.015 L 1.391 0.053 L 1.349 0.085 L 1.312 0.111 L 1.282 0.131 L 1.258 0.146 L 1.240 0.154 L 1.227 0.155 L 1.220 0.151 L 1.217 0.141 L 1.220 0.125 L 1.226 0.105 L 1.235 0.081 L 1.247 0.053 L 1.261 0.022 L 1.276 -0.011 L 1.292 -0.044 L 1.307 -0.078 L 1.321 -0.111 L 1.333 -0.142 L 1.343 -0.170 L 1.350 -0.195 L 1.353 -0.215 L 1.352 -0.231 L 1.347 -0.240 L 1.337 -0.244 L 1.322 -0.240 L 1.302 -0.230 L 1.277 -0.212 L 1.247 -0.187 L 1.212 -0.155 L 1.173 -0.116 L 1.130 -0.070 L 1.084 -0.018 L 1.034 0.039 L 0.982 0.102 L 0.928 0.168 L 0.872 0.238 L 0.816 0.310 L 0.761 0.383 L 0.706 0.457 L 0.653 0.530 L 0.601 0.601 L 0.553 0.668 L 0.508 0.732 L 0.466 0.792 L 0.429 0.845 L 0.397 0.892 L 0.369 0.932 L 0.346 0.964 L 0.329 0.988 L 0.316 1.004 L 0.309 1.011 L 0.306 1.010 L 0.308 1.000 L 0.315 0.982 L 0.326 0.957 L 0.340 0.925 L 0.357 0.886 L 0.377 0.841 L 0.398 0.792 L 0.422 0.739 L 0.446 0.683 L 0.470 0.625 L 0.494 0.567 L 0.517 0.509 L 0.539 0.453 L 0.559 0.399 L 0.576 0.349 L 0.592 0.303 L 0.604 0.262 L 0.613 0.228 L 0.618 0.199 L 0.621 0.178 L 0.620 0.164 L 0.615 0.157 L 0.608 0.158 L 0.597 0.166 L 0.583 0.180 L 0.567 0.202 L 0.548 0.229 L 0.528 0.262 L 0.506 0.299 L 0.484 0.340 L 0.460 0.383 L 0.437 0.427 L 0.414 0.473 L 0.391 0.517 L 0.370 0.560 L 0.351 0.599 L 0.333 0.635 L 0.317 0.665 L 0.304 0.690 L 0.294 0.708 L 0.286 0.718 L 0.281 0.720 L 0.279 0.713 L 0.280 0.697 L 0.284 0.672 L 0.290 0.638 L 0.299 0.594 L 0.311 0.542 L 0.324 0.482 L 0.339 0.414 L 0.356 0.339 L 0.373 0.257 L 0.392 0.171 L 0.410 0.080 L 0.429 -0.014 L 0.447 -0.110 L 0.464 -0.206 L 0.481 -0.302 L 0.496 -0.396 L 0.509 -0.488 L 0.521 -0.575 L 0.531 -0.657 L 0.538 -0.734 L 0.543 -0.803 L 0.546 -0.865 L 0.547 -0.919 L 0.545 -0.964 L 0.541 -1.000 L 0.535 -1.027 L 0.526 -1.046 L 0.516 -1.055 L 0.504 -1.057 L 0.491 -1.050 L 0.476 -1.037 L 0.460 -1.017 L 0.444 -0.991 L 0.427 -0.961 L 0.410 -0.927 L 0.393 -0.891 L 0.376 -0.854 L 0.359 -0.817 L 0.343 -0.781 L 0.328 -0.748 L 0.313 -0.718 L 0.299 -0.692 L 0.286 -0.672 L 0.274 -0.657 L 0.263 -0.650 L 0.253 -0.651 L 0.244 -0.659 L 0.236 -0.675 L 0.228 -0.700 L 0.221 -0.732 L 0.215 -0.773 L 0.208 -0.822 L 0.202 -0.877 L 0.196 -0.939 L 0.190 -1.006 L 0.183 -1.078 L 0.176 -1.153 L 0.169 -1.231 L 0.161 -1.311 L 0.152 -1.390 L 0.143 -1.468 L 0.132 -1.544 L 0.121 -1.617 L 0.109 -1.684 L 0.096 -1.746 L 0.083 -1.801 L 0.069 -1.848 L 0.054 -1.887 L 0.039 -1.917 L 0.024 -1.937 L 0.008 -1.947 L -0.008 -1.947 L -0.024 -1.937 L -0.039 -1.917 L -0.054 -1.887 L -0.069 -1.848 L -0.083 -1.801 L -0.096 -1.746 L -0.109 -1.684 L -0.121 -1.617 L -0.132 -1.544 L -0.143 -1.468 L -0.152 -1.390 L -0.161 -1.311 L -0.169 -1.231 L -0.176 -1.153 L -0.183 -1.078 L -0.190 -1.006 L -0.196 -0.939 L -0.202 -0.877 L -0.208 -0.822 L -0.215 -0.773 L -0.221 -0.732 L -0.228 -0.700 L -0.236 -0.675 L -0.244 -0.659 L -0.253 -0.651 L -0.263 -0.650 L -0.274 -0.657 L -0.286 -0.672 L -0.299 -0.692 L -0.313 -0.718 L -0.328 -0.748 L -0.343 -0.781 L -0.359 -0.817 L -0.376 -0.854 L -0.393 -0.891 L -0.410 -0.927 L -0.427 -0.961 L -0.444 -0.991 L -0.460 -1.017 L -0.476 -1.037 L -0.491 -1.050 L -0.504 -1.057 L -0.516 -1.055 L -0.526 -1.046 L -0.535 -1.027 L -0.541 -1.000 L -0.545 -0.964 L -0.547 -0.919 L -0.546 -0.865 L -0.543 -0.803 L -0.538 -0.734 L -0.531 -0.657 L -0.521 -0.575 L -0.509 -0.488 L -0.496 -0.396 L -0.481 -0.302 L -0.464 -0.206 L -0.447 -0.110 L -0.429 -0.014 L -0.410 0.080 L -0.392 0.171 L -0.373 0.257 L -0.356 0.339 L -0.339 0.414 L -0.324 0.482 L -0.311 0.542 L -0.299 0.594 L -0.290 0.638 L -0.284 0.672 L -0.280 0.697 L -0.279 0.713 L -0.281 0.720 L -0.286 0.718 L -0.294 0.708 L -0.304 0.690 L -0.317 0.665 L -0.333 0.635 L -0.351 0.599 L -0.370 0.560 L -0.391 0.517 L -0.414 0.473 L -0.437 0.427 L -0.460 0.383 L -0.484 0.340 L -0.506 0.299 L -0.528 0.262 L -0.548 0.229 L -0.567 0.202 L -0.583 0.180 L -0.597 0.166 L -0.608 0.158 L -0.615 0.157 L -0.620 0.164 L -0.621 0.178 L -0.618 0.199 L -0.613 0.228 L -0.604 0.262 L -0.592 0.303 L -0.576 0.349 L -0.559 0.399 L -0.539 0.453 L -0.517 0.509 L -0.494 0.567 L -0.470 0.625 L -0.446 0.683 L -0.422 0.739 L -0.398 0.792 L -0.377 0.841 L -0.357 0.886 L -0.340 0.925 L -0.326 0.957 L -0.315 0.982 L -0.308 1.000 L -0.306 1.010 L -0.309 1.011 L -0.316 1.004 L -0.329 0.988 L -0.346 0.964 L -0.369 0.932 L -0.397 0.892 L -0.429 0.845 L -0.466 0.792 L -0.508 0.732 L -0.553 0.668 L -0.601 0.601 L -0.653 0.530 L -0.706 0.457 L -0.761 0.383 L -0.816 0.310 L -0.872 0.238 L -0.928 0.168 L -0.982 0.102 L -1.034 0.039 L -1.084 -0.018 L -1.130 -0.070 L -1.173 -0.116 L -1.212 -0.155 L -1.247 -0.187 L -1.277 -0.212 L -1.302 -0.230 L -1.322 -0.240 L -1.337 -0.244 L -1.347 -0.240 L -1.352 -0.231 L -1.353 -0.215 L -1.350 -0.195 L -1.343 -0.170 L -1.333 -0.142 L -1.321 -0.111 L -1.307 -0.078 L -1.292 -0.044 L -1.276 -0.011 L -1.261 0.022 L -1.247 0.053 L -1.235 0.081 L -1.226 0.105 L -1.220 0.125 L -1.217 0.141 L -1.220 0.151 L -1.227 0.155 L -1.240 0.154 L -1.258 0.146 L -1.282 0.131 L -1.312 0.111 L -1.349 0.085 L -1.391 0.053 L -1.438 0.015 L -1.491 -0.027 L -1.548 -0.073 L -1.610 -0.123 L -1.675 -0.175 L -1.743 -0.229 L -1.813 -0.284 L -1.885 -0.339 L -1.956 -0.393 L -2.027 -0.446 L -2.097 -0.496 L -2.164 -0.543 L -2.229 -0.586 L -2.289 -0.624 L -2.344 -0.657 L -2.394 -0.684 L -2.439 -0.705 L -2.476 -0.719 L -2.507 -0.726 L -2.530 -0.727 L -2.546 -0.721 L -2.555 -0.708 L -2.556 -0.688 L -2.550 -0.663 L -2.537 -0.632 L -2.518 -0.596 L -2.493 -0.556 L -2.464 -0.512 L -2.429 -0.464 L -2.391 -0.415 L -2.350 -0.364 L -2.308 -0.312 L -2.265 -0.260 L -2.221 -0.209 L -2.179 -0.160 L -2.138 -0.112 L -2.101 -0.068 L -2.067 -0.027 L -2.037 0.010 L -2.012 0.043 L -1.992 0.072 L -1.979 0.096 L -1.972 0.115 L -1.971 0.129 L -1.976 0.138 L -1.988 0.143 L -2.006 0.144 L -2.030 0.141 L -2.059 0.134 L -2.093 0.125 L -2.131 0.113 L -2.172 0.099 L -2.216 0.084 L -2.261 0.069 L -2.307 0.054 L -2.352 0.040 L -2.395 0.027 L -2.436 0.016 L -2.474 0.008 L -2.507 0.003 L -2.535 0.001 L -2.557 0.004 L -2.572 0.010 L -2.579 0.021 L -2.579 0.037 L -2.571 0.057 L -2.555 0.082 L -2.530 0.111 L -2.497 0.145 L -2.456 0.183 L -2.407 0.224 L -2.351 0.269 L -2.289 0.316 L -2.220 0.366 L -2.147 0.417 L -2.070 0.470 L -1.990 0.523 L -1.908 0.576 L -1.825 0.629 L -1.743 0.680 L -1.661 0.730 L -1.583 0.778 L -1.507 0.823 L -1.436 0.866 L -1.370 0.905 L -1.311 0.940 L -1.258 0.972 L -1.212 0.999 L -1.174 1.023 L -1.144 1.042 L -1.123 1.058 L -1.109 1.070 L -1.103 1.079 L -1.105 1.084 L -1.114 1.086 L -1.129 1.085 L -1.151 1.083 L -1.177 1.078 L -1.208 1.072 L -1.241 1.065 L -1.277 1.057 L -1.315 1.050 L -1.352 1.042 L -1.388 1.036 L -1.422 1.030 L -1.453 1.026 L -1.480 1.024 L -1.502 1.024 L -1.519 1.026 L -1.530 1.030 L -1.533 1.036 L -1.530 1.045 L -1.519 1.056 L -1.500 1.070 L -1.475 1.085 L -1.442 1.103 L -1.402 1.122 L -1.355 1.143 L -1.303 1.165 L -1.246 1.188 L -1.185 1.212 L -1.120 1.236 L -1.053 1.260 L -0.985 1.283 L -0.917 1.306 L -0.849 1.329 L -0.784 1.349 L -0.722 1.369 L -0.664 1.387 L -0.611 1.403 L -0.564 1.417 L -0.524 1.429 L -0.491 1.439 L -0.467 1.447 L -0.450 1.453 L -0.443 1.457 L -0.444 1.458 L -0.453 1.458 L -0.472 1.457 L -0.498 1.454 L -0.532 1.450 L -0.574 1.444 L -0.622 1.438 L -0.675 1.432 L -0.733 1.425 L -0.795 1.418 L -0.860 1.411 L -0.926 1.404 L -0.993 1.398 L -1.060 1.392 L -1.124 1.388 L -1.187 1.384 L -1.246 1.382 L -1.300 1.380 L -1.350 1.380 L -1.393 1.381 L -1.431 1.382 L -1.461 1.385 L -1.485 1.390 L -1.501 1.395 L -1.511 1.400 L -1.513 1.407 L -1.509 1.414 L -1.498 1.422 L -1.481 1.430 L -1.460 1.439 L -1.433 1.447 L -1.403 1.456 L -1.370 1.464 L -1.335 1.472 L -1.299 1.480 L -1.264 1.488 L -1.228 1.495 L -1.195 1.502 L -1.164 1.509 L -1.137 1.515 L -1.114 1.521 L -1.095 1.526 L -1.082 1.531 L -1.075 1.536 L -1.074 1.541 L -1.079 1.546 L -1.091 1.551 L -1.108 1.556 L -1.132 1.561 L -1.162 1.566 L -1.197 1.572 L -1.237 1.578 L -1.281 1.585 L -1.329 1.592 L -1.379 1.600 L -1.432 1.608 L -1.486 1.617 L -1.540 1.626 L -1.594 1.636 L -1.647 1.646 L -1.697 1.657 L -1.744 1.668 L -1.788 1.679 L -1.827 1.690 L -1.861 1.701 L -1.890 1.711 L -1.913 1.722 L -1.930 1.732 L -1.940 1.742 L -1.945 1.751 L -1.942 1.760 L -1.934 1.768 L -1.920 1.775 L -1.900 1.781 L -1.875 1.787 L -1.845 1.791 L -1.811 1.795 L -1.773 1.798 L -1.733 1.801 L -1.690 1.802 L -1.646 1.803 L -1.601 1.804 L -1.556 1.804 L -1.512 1.804 L -1.469 1.803 L -1.428 1.803 L -1.389 1.803 L -1.353 1.802 L -1.320 1.802 L -1.291 1.803 L -1.266 1.804 L -1.244 1.805 L -1.227 1.808 L -1.213 1.810 L -1.204 1.814 L -1.198 1.818 L -1.196 1.824 L -1.197 1.829 L -1.200 1.836 L -1.207 1.843 L -1.215 1.851 L -1.224 1.859 L -1.234 1.868 L -1.245 1.876 L -1.255 1.885 L -1.265 1.894 L -1.274 1.902 L -1.281 1.910 L -1.286 1.918 L -1.289 1.925 L -1.288 1.931 L -1.285 1.936 L -1.278 1.941 L -1.269 1.944 L -1.255 1.946 L -1.238 1.947 L -1.218 1.946 L -1.194 1.945 L -1.167 1.942 L -1.137 1.937 L -1.105 1.932 L -1.070 1.925 L -1.033 1.917 L -0.994 1.909 L -0.954 1.899 L -0.913 1.889 L -0.872 1.878 L -0.831 1.867 L -0.790 1.856 L -0.750 1.844 L -0.712 1.833 L -0.674 1.822 L -0.639 1.811 L -0.606 1.801 L -0.575 1.791 L -0.546 1.782 L -0.520 1.774 L -0.497 1.767 L -0.477 1.760 L -0.459 1.755 L -0.445 1.751 L -0.432 1.748 L -0.423 1.746 L -0.415 1.744 L -0.410 1.744 L -0.406 1.745 L -0.404 1.746 L -0.403 1.748 L -0.404 1.750 L -0.405 1.753 L -0.406 1.756 L -0.408 1.759 L -0.410 1.763 L -0.411 1.766 L -0.412 1.768 L -0.412 1.771 L -0.410 1.772 L -0.408 1.774 L -0.405 1.774 L -0.400 1.774 L -0.394 1.773 L -0.386 1.771 L -0.377 1.768 L -0.367 1.764 L -0.355 1.759 L -0.342 1.754 L -0.327 1.747 L -0.312 1.740 L -0.296 1.732 L -0.280 1.724 L -0.263 1.715 L -0.246 1.706 L -0.228 1.697 L -0.211 1.687 L -0.194 1.677 L -0.178 1.668 L -0.162 1.659 L -0.147 1.650 L -0.134 1.642 L -0.121 1.634 L -0.109 1.627 L -0.099 1.621 L -0.090 1.615 L -0.083 1.610 L -0.077 1.607 L -0.072 1.604 L -0.069 1.602 L -0.067 1.601 L -0.066 1.601 L -0.067 1.602 L -0.068 1.603 L -0.071 1.606 L -0.074 1.609 L -0.078 1.612 L -0.083 1.617 L -0.088 1.621 L -0.093 1.626 L -0.098 1.631 L -0.103 1.636 L -0.109 1.641 L -0.113 1.646 L -0.118 1.650 L -0.122 1.655 L -0.125 1.658 L -0.128 1.662 L -0.131 1.665 L -0.132 1.667 L -0.133 1.669 L -0.133 1.670 L -0.132 1.671 L -0.131 1.671 L -0.129 1.670 L -0.127 1.668 L -0.123 1.667 L -0.120 1.664 L -0.116 1.661 L -0.111 1.658 L -0.107 1.655 L -0.102 1.651 L -0.097 1.647 L -0.092 1.643 L -0.088 1.639 L -0.083 1.636 L -0.079 1.632 L -0.075 1.629 L -0.071 1.626 L -0.068 1.623 L -0.065 1.621 L -0.063 1.619 L -0.061 1.618 L -0.060 1.617 L -0.059 1.617 L -0.059 1.617 L -0.059 1.618 L -0.060 1.620 L -0.061 1.622 L -0.063 1.624 L -0.065 1.627 L -0.067 1.630 L -0.070 1.634 L -0.072 1.638 L -0.075 1.642 L -0.078 1.646 L -0.081 1.650 L -0.084 1.655 L -0.086 1.659 L -0.089 1.663 L -0.091 1.667 L -0.093 1.671 L -0.095 1.674 L -0.096 1.677 L -0.097 1.680 L -0.098 1.682 L -0.099 1.684 L -0.099 1.685 L -0.098 1.686 L -0.098 1.686 L -0.097 1.686 L -0.095 1.686 L -0.094 1.684 L -0.092 1.683 L -0.090 1.681 L -0.087 1.679 L -0.085 1.677 L -0.082 1.674 L -0.080 1.672 L -0.077 1.669 L -0.074 1.666 L -0.072 1.663 L -0.069 1.660 L -0.067 1.657 L -0.064 1.654 L -0.062 1.652 L -0.060 1.649 L -0.058 1.647 L -0.056 1.645 L -0.055 1.644 L -0.054 1.642 L -0.053 1.642 L -0.052 1.641 L -0.051 1.641 L -0.050 1.641 L -0.050 1.641 L -0.050 1.641 L -0.050 1.642 L -0.050 1.643 L -0.050 1.644 L -0.050 1.645 L -0.050 1.647 L -0.050 1.648 L -0.050 1.650 L -0.050 1.651 L -0.051 1.652 L -0.051 1.653 L -0.051 1.654 L -0.050 1.655 L -0.050 1.656 L -0.050 1.656 L -0.049 1.657 L -0.049 1.657 L -0.048 1.656 L -0.047 1.656 L -0.046 1.655 L -0.045 1.653 L -0.044 1.652 L -0.043 1.650 L -0.041 1.648 L -0.040 1.646 L -0.038 1.643 L -0.037 1.641 L -0.035 1.638 L -0.033 1.635 L -0.032 1.632 L -0.030 1.629 L -0.029 1.626 L -0.027 1.623 L -0.026 1.620 L -0.024 1.618 L -0.023 1.615 L -0.022 1.612 L -0.021 1.610 L -0.020 1.608 L -0.019 1.606 L -0.018 1.604 L -0.017 1.602 L -0.016 1.601 L -0.015 1.599 L -0.015 1.598 L -0.014 1.598 L -0.014 1.597 L -0.014 1.597 L -0.013 1.596 L -0.013 1.596 L -0.013 1.596 L -0.013 1.596 L -0.013 1.596 L -0.012 1.597 L -0.012 1.597 L -0.012 1.597 L -0.012 1.597 L -0.012 1.598 L -0.012 1.598 L -0.011 1.598 L -0.011 1.598 L -0.011 1.597 L -0.011 1.597 L -0.010 1.597 L -0.010 1.596 L -0.009 1.595 L -0.009 1.594 L -0.009 1.593 L -0.008 1.592 L -0.008 1.591 L -0.007 1.589 L -0.007 1.588 L -0.006 1.586 L -0.006 1.585 L -0.005 1.583 L -0.005 1.581 L -0.005 1.579 L -0.004 1.578 L -0.004 1.576 L -0.003 1.574 L -0.003 1.572 L -0.003 1.571 L -0.002 1.569 L -0.002 1.568 L -0.002 1.567 L -0.002 1.566 L -0.002 1.565 L -0.001 1.564 L -0.001 1.563 L -0.001 1.562 L -0.001 1.562 L -0.001 1.562 L -0.001 1.562 L -0.001 1.562 L -0.001 1.562 L -0.001 1.562 L -0.001 1.562 L -0.001 1.562 L -0.001 1.563 L -0.001 1.563 L -0.001 1.564 L -0.001 1.564 L -0.001 1.565 L -0.001 1.565 L -0.001 1.566 L -0.001 1.566 L -0.000 1.567 L -0.000 1.567 L -0.000 1.567 L -0.000 1.568 L -0.000 1.568 L -0.000 1.568 L -0.000 1.568 L -0.000 1.568 Z" fill="#D32F2F" stroke="#D32F2F" stroke-width="0.288"/>
  <path d="M 0.000 1.752 L 0.311 2.920 L -0.311 2.920 Z" fill="#D32F2F" stroke="#D32F2F" stroke-width="0.288"/>
</g>

<g transform="translate(500,500) scale(1.15)">

    <path d="M 286.60 60.92 A 293.00 293.00 0 0 1 196.06 217.74" fill="none" stroke="#000000" stroke-width="14" stroke-linecap="round"/>
    <path d="M 286.60 60.92 A 293.00 293.00 0 0 1 196.06 217.74" fill="none" stroke="#2F5FA7" stroke-width="13" stroke-linecap="round"/>
    <path d="M 286.60 60.92 A 293.00 293.00 0 0 1 196.06 217.74" fill="none" stroke="#F2F2E8" stroke-width="5.8" stroke-linecap="round"/>
    
    <path d="M 225.90 64.77 A 235.00 235.00 0 0 1 169.04 163.24" fill="none" stroke="#000000" stroke-width="14" stroke-linecap="round"/>
    <path d="M 225.90 64.77 A 235.00 235.00 0 0 1 169.04 163.24" fill="none" stroke="#2F5FA7" stroke-width="13" stroke-linecap="round"/>
    <path d="M 225.90 64.77 A 235.00 235.00 0 0 1 169.04 163.24" fill="none" stroke="#F2F2E8" stroke-width="5.8" stroke-linecap="round"/>
    
    <path d="M 169.14 61.56 A 180.00 180.00 0 0 1 137.89 115.70" fill="none" stroke="#000000" stroke-width="14" stroke-linecap="round"/>
    <path d="M 169.14 61.56 A 180.00 180.00 0 0 1 137.89 115.70" fill="none" stroke="#2F5FA7" stroke-width="13" stroke-linecap="round"/>
    <path d="M 169.14 61.56 A 180.00 180.00 0 0 1 137.89 115.70" fill="none" stroke="#F2F2E8" stroke-width="5.8" stroke-linecap="round"/>
    
    <path d="M 90.54 278.66 A 293.00 293.00 0 0 1 -90.54 278.66" fill="none" stroke="#000000" stroke-width="14" stroke-linecap="round"/>
    <path d="M 90.54 278.66 A 293.00 293.00 0 0 1 -90.54 278.66" fill="none" stroke="#2F5FA7" stroke-width="13" stroke-linecap="round"/>
    <path d="M 90.54 278.66 A 293.00 293.00 0 0 1 -90.54 278.66" fill="none" stroke="#F2F2E8" stroke-width="5.8" stroke-linecap="round"/>
    
    <path d="M 56.85 228.02 A 235.00 235.00 0 0 1 -56.85 228.02" fill="none" stroke="#000000" stroke-width="14" stroke-linecap="round"/>
    <path d="M 56.85 228.02 A 235.00 235.00 0 0 1 -56.85 228.02" fill="none" stroke="#2F5FA7" stroke-width="13" stroke-linecap="round"/>
    <path d="M 56.85 228.02 A 235.00 235.00 0 0 1 -56.85 228.02" fill="none" stroke="#F2F2E8" stroke-width="5.8" stroke-linecap="round"/>
    
    <path d="M 31.26 177.27 A 180.00 180.00 0 0 1 -31.26 177.27" fill="none" stroke="#000000" stroke-width="14" stroke-linecap="round"/>
    <path d="M 31.26 177.27 A 180.00 180.00 0 0 1 -31.26 177.27" fill="none" stroke="#2F5FA7" stroke-width="13" stroke-linecap="round"/>
    <path d="M 31.26 177.27 A 180.00 180.00 0 0 1 -31.26 177.27" fill="none" stroke="#F2F2E8" stroke-width="5.8" stroke-linecap="round"/>
    
    <path d="M -196.06 217.74 A 293.00 293.00 0 0 1 -286.60 60.92" fill="none" stroke="#000000" stroke-width="14" stroke-linecap="round"/>
    <path d="M -196.06 217.74 A 293.00 293.00 0 0 1 -286.60 60.92" fill="none" stroke="#2F5FA7" stroke-width="13" stroke-linecap="round"/>
    <path d="M -196.06 217.74 A 293.00 293.00 0 0 1 -286.60 60.92" fill="none" stroke="#F2F2E8" stroke-width="5.8" stroke-linecap="round"/>
    
    <path d="M -169.04 163.24 A 235.00 235.00 0 0 1 -225.90 64.77" fill="none" stroke="#000000" stroke-width="14" stroke-linecap="round"/>
    <path d="M -169.04 163.24 A 235.00 235.00 0 0 1 -225.90 64.77" fill="none" stroke="#2F5FA7" stroke-width="13" stroke-linecap="round"/>
    <path d="M -169.04 163.24 A 235.00 235.00 0 0 1 -225.90 64.77" fill="none" stroke="#F2F2E8" stroke-width="5.8" stroke-linecap="round"/>
    
    <path d="M -137.89 115.70 A 180.00 180.00 0 0 1 -169.14 61.56" fill="none" stroke="#000000" stroke-width="14" stroke-linecap="round"/>
    <path d="M -137.89 115.70 A 180.00 180.00 0 0 1 -169.14 61.56" fill="none" stroke="#2F5FA7" stroke-width="13" stroke-linecap="round"/>
    <path d="M -137.89 115.70 A 180.00 180.00 0 0 1 -169.14 61.56" fill="none" stroke="#F2F2E8" stroke-width="5.8" stroke-linecap="round"/>
    
    <path d="M -286.60 -60.92 A 293.00 293.00 0 0 1 -196.06 -217.74" fill="none" stroke="#000000" stroke-width="14" stroke-linecap="round"/>
    <path d="M -286.60 -60.92 A 293.00 293.00 0 0 1 -196.06 -217.74" fill="none" stroke="#2F5FA7" stroke-width="13" stroke-linecap="round"/>
    <path d="M -286.60 -60.92 A 293.00 293.00 0 0 1 -196.06 -217.74" fill="none" stroke="#F2F2E8" stroke-width="5.8" stroke-linecap="round"/>
    
    <path d="M -225.90 -64.77 A 235.00 235.00 0 0 1 -169.04 -163.24" fill="none" stroke="#000000" stroke-width="14" stroke-linecap="round"/>
    <path d="M -225.90 -64.77 A 235.00 235.00 0 0 1 -169.04 -163.24" fill="none" stroke="#2F5FA7" stroke-width="13" stroke-linecap="round"/>
    <path d="M -225.90 -64.77 A 235.00 235.00 0 0 1 -169.04 -163.24" fill="none" stroke="#F2F2E8" stroke-width="5.8" stroke-linecap="round"/>
    
    <path d="M -169.14 -61.56 A 180.00 180.00 0 0 1 -137.89 -115.70" fill="none" stroke="#000000" stroke-width="14" stroke-linecap="round"/>
    <path d="M -169.14 -61.56 A 180.00 180.00 0 0 1 -137.89 -115.70" fill="none" stroke="#2F5FA7" stroke-width="13" stroke-linecap="round"/>
    <path d="M -169.14 -61.56 A 180.00 180.00 0 0 1 -137.89 -115.70" fill="none" stroke="#F2F2E8" stroke-width="5.8" stroke-linecap="round"/>
    
    <path d="M -90.54 -278.66 A 293.00 293.00 0 0 1 90.54 -278.66" fill="none" stroke="#000000" stroke-width="14" stroke-linecap="round"/>
    <path d="M -90.54 -278.66 A 293.00 293.00 0 0 1 90.54 -278.66" fill="none" stroke="#2F5FA7" stroke-width="13" stroke-linecap="round"/>
    <path d="M -90.54 -278.66 A 293.00 293.00 0 0 1 90.54 -278.66" fill="none" stroke="#F2F2E8" stroke-width="5.8" stroke-linecap="round"/>
    
    <path d="M -56.85 -228.02 A 235.00 235.00 0 0 1 56.85 -228.02" fill="none" stroke="#000000" stroke-width="14" stroke-linecap="round"/>
    <path d="M -56.85 -228.02 A 235.00 235.00 0 0 1 56.85 -228.02" fill="none" stroke="#2F5FA7" stroke-width="13" stroke-linecap="round"/>
    <path d="M -56.85 -228.02 A 235.00 235.00 0 0 1 56.85 -228.02" fill="none" stroke="#F2F2E8" stroke-width="5.8" stroke-linecap="round"/>
    
    <path d="M -31.26 -177.27 A 180.00 180.00 0 0 1 31.26 -177.27" fill="none" stroke="#000000" stroke-width="14" stroke-linecap="round"/>
    <path d="M -31.26 -177.27 A 180.00 180.00 0 0 1 31.26 -177.27" fill="none" stroke="#2F5FA7" stroke-width="13" stroke-linecap="round"/>
    <path d="M -31.26 -177.27 A 180.00 180.00 0 0 1 31.26 -177.27" fill="none" stroke="#F2F2E8" stroke-width="5.8" stroke-linecap="round"/>
    
    <path d="M 196.06 -217.74 A 293.00 293.00 0 0 1 286.60 -60.92" fill="none" stroke="#000000" stroke-width="14" stroke-linecap="round"/>
    <path d="M 196.06 -217.74 A 293.00 293.00 0 0 1 286.60 -60.92" fill="none" stroke="#2F5FA7" stroke-width="13" stroke-linecap="round"/>
    <path d="M 196.06 -217.74 A 293.00 293.00 0 0 1 286.60 -60.92" fill="none" stroke="#F2F2E8" stroke-width="5.8" stroke-linecap="round"/>
    
    <path d="M 169.04 -163.24 A 235.00 235.00 0 0 1 225.90 -64.77" fill="none" stroke="#000000" stroke-width="14" stroke-linecap="round"/>
    <path d="M 169.04 -163.24 A 235.00 235.00 0 0 1 225.90 -64.77" fill="none" stroke="#2F5FA7" stroke-width="13" stroke-linecap="round"/>
    <path d="M 169.04 -163.24 A 235.00 235.00 0 0 1 225.90 -64.77" fill="none" stroke="#F2F2E8" stroke-width="5.8" stroke-linecap="round"/>
    
    <path d="M 137.89 -115.70 A 180.00 180.00 0 0 1 169.14 -61.56" fill="none" stroke="#000000" stroke-width="14" stroke-linecap="round"/>
    <path d="M 137.89 -115.70 A 180.00 180.00 0 0 1 169.14 -61.56" fill="none" stroke="#2F5FA7" stroke-width="13" stroke-linecap="round"/>
    <path d="M 137.89 -115.70 A 180.00 180.00 0 0 1 169.14 -61.56" fill="none" stroke="#F2F2E8" stroke-width="5.8" stroke-linecap="round"/>
    
    <g transform="rotate(0)">
      <rect x="65" y="-13" width="190" height="26" rx="10" ry="10" fill="#F2F2E8" stroke="#000000" stroke-width="8"/>
      <circle cx="293" cy="0" r="30" fill="#2F5FA7" stroke="#000000" stroke-width="6"/>
    </g>

    <g transform="rotate(60)">
      <rect x="65" y="-13" width="190" height="26" rx="10" ry="10" fill="#F2F2E8" stroke="#000000" stroke-width="8"/>
      <circle cx="293" cy="0" r="30" fill="#2F5FA7" stroke="#000000" stroke-width="6"/>
    </g>

    <g transform="rotate(120)">
      <rect x="65" y="-13" width="190" height="26" rx="10" ry="10" fill="#F2F2E8" stroke="#000000" stroke-width="8"/>
      <circle cx="293" cy="0" r="30" fill="#2F5FA7" stroke="#000000" stroke-width="6"/>
    </g>

    <g transform="rotate(180)">
      <rect x="65" y="-13" width="190" height="26" rx="10" ry="10" fill="#F2F2E8" stroke="#000000" stroke-width="8"/>
      <circle cx="293" cy="0" r="30" fill="#2F5FA7" stroke="#000000" stroke-width="6"/>
    </g>

    <g transform="rotate(240)">
      <rect x="65" y="-13" width="190" height="26" rx="10" ry="10" fill="#F2F2E8" stroke="#000000" stroke-width="8"/>
      <circle cx="293" cy="0" r="30" fill="#2F5FA7" stroke="#000000" stroke-width="6"/>
    </g>

    <g transform="rotate(300)">
      <rect x="65" y="-13" width="190" height="26" rx="10" ry="10" fill="#F2F2E8" stroke="#000000" stroke-width="8"/>
      <circle cx="293" cy="0" r="30" fill="#2F5FA7" stroke="#000000" stroke-width="6"/>
    </g>

  <circle cx="0" cy="0" r="76" fill="none" stroke="#000000" stroke-width="12"/>
  <circle cx="0" cy="0" r="68" fill="#2F5FA7" stroke="#000000" stroke-width="10"/>

  <g clip-path="url(#globeClip)" fill="none" stroke="#F2F2E8" stroke-width="2.0">
<path d="M -0.00 52.09 L -2.06 52.09 L -4.13 52.09 L -6.19 52.09 L -8.24 52.09 L -10.28 52.09 L -12.32 52.09 L -14.34 52.09 L -16.34 52.09 L -18.32 52.09 L -20.27 52.09 L -22.19 52.09 L -24.08 52.09 L -25.92 52.09 L -27.71 52.09 L -29.44 52.09 L -31.10 52.09 L -32.69 52.09 L -34.21 52.09 L -35.63 52.09 L -36.96 52.09 L -38.19 52.09 L -39.31 52.09 L -40.32 52.09 L -41.20 52.09 L -41.96 52.09 L -42.58 52.09 L -43.07 52.09 L -43.43 52.09 L -43.64 52.09 L -43.71 52.09 L -43.64 52.09 L -43.43 52.09 L -43.07 52.09 L -42.58 52.09 L -41.96 52.09 L -41.20 52.09 L -40.32 52.09 L -39.31 52.09 L -38.19 52.09 L -36.96 52.09 L -35.63 52.09 L -34.21 52.09 L -32.69 52.09 L -31.10 52.09 L -29.44 52.09 L -27.71 52.09 L -25.92 52.09 L -24.08 52.09 L -22.19 52.09 L -20.27 52.09 L -18.32 52.09 L -16.34 52.09 L -14.34 52.09 L -12.32 52.09 L -10.28 52.09 L -8.24 52.09 L -6.19 52.09 L -4.13 52.09 L -2.06 52.09 L 0.00 52.09 L 2.06 52.09 L 4.13 52.09 L 6.19 52.09 L 8.24 52.09 L 10.28 52.09 L 12.32 52.09 L 14.34 52.09 L 16.34 52.09 L 18.32 52.09 L 20.27 52.09 L 22.19 52.09 L 24.08 52.09 L 25.92 52.09 L 27.71 52.09 L 29.44 52.09 L 31.10 52.09 L 32.69 52.09 L 34.21 52.09 L 35.63 52.09 L 36.96 52.09 L 38.19 52.09 L 39.31 52.09 L 40.32 52.09 L 41.20 52.09 L 41.96 52.09 L 42.58 52.09 L 43.07 52.09 L 43.43 52.09 L 43.64 52.09 L 43.71 52.09 L 43.64 52.09 L 43.43 52.09 L 43.07 52.09 L 42.58 52.09 L 41.96 52.09 L 41.20 52.09 L 40.32 52.09 L 39.31 52.09 L 38.19 52.09 L 36.96 52.09 L 35.63 52.09 L 34.21 52.09 L 32.69 52.09 L 31.10 52.09 L 29.44 52.09 L 27.71 52.09 L 25.92 52.09 L 24.08 52.09 L 22.19 52.09 L 20.27 52.09 L 18.32 52.09 L 16.34 52.09 L 14.34 52.09 L 12.32 52.09 L 10.28 52.09 L 8.24 52.09 L 6.19 52.09 L 4.13 52.09 L 2.06 52.09 L 0.00 52.09"/>
<path d="M -0.00 34.00 L -2.51 34.00 L -5.02 34.00 L -7.54 34.00 L -10.07 34.00 L -12.62 34.00 L -15.17 34.00 L -17.73 34.00 L -20.30 34.00 L -22.87 34.00 L -25.45 34.00 L -28.01 34.00 L -30.55 34.00 L -33.07 34.00 L -35.54 34.00 L -37.97 34.00 L -40.32 34.00 L -42.60 34.00 L -44.78 34.00 L -46.85 34.00 L -48.80 34.00 L -50.61 34.00 L -52.27 34.00 L -53.77 34.00 L -55.10 34.00 L -56.24 34.00 L -57.18 34.00 L -57.92 34.00 L -58.46 34.00 L -58.78 34.00 L -58.89 34.00 L -58.78 34.00 L -58.46 34.00 L -57.92 34.00 L -57.18 34.00 L -56.24 34.00 L -55.10 34.00 L -53.77 34.00 L -52.27 34.00 L -50.61 34.00 L -48.80 34.00 L -46.85 34.00 L -44.78 34.00 L -42.60 34.00 L -40.32 34.00 L -37.97 34.00 L -35.54 34.00 L -33.07 34.00 L -30.55 34.00 L -28.01 34.00 L -25.45 34.00 L -22.87 34.00 L -20.30 34.00 L -17.73 34.00 L -15.17 34.00 L -12.62 34.00 L -10.07 34.00 L -7.54 34.00 L -5.02 34.00 L -2.51 34.00 L 0.00 34.00 L 2.51 34.00 L 5.02 34.00 L 7.54 34.00 L 10.07 34.00 L 12.62 34.00 L 15.17 34.00 L 17.73 34.00 L 20.30 34.00 L 22.87 34.00 L 25.45 34.00 L 28.01 34.00 L 30.55 34.00 L 33.07 34.00 L 35.54 34.00 L 37.97 34.00 L 40.32 34.00 L 42.60 34.00 L 44.78 34.00 L 46.85 34.00 L 48.80 34.00 L 50.61 34.00 L 52.27 34.00 L 53.77 34.00 L 55.10 34.00 L 56.24 34.00 L 57.18 34.00 L 57.92 34.00 L 58.46 34.00 L 58.78 34.00 L 58.89 34.00 L 58.78 34.00 L 58.46 34.00 L 57.92 34.00 L 57.18 34.00 L 56.24 34.00 L 55.10 34.00 L 53.77 34.00 L 52.27 34.00 L 50.61 34.00 L 48.80 34.00 L 46.85 34.00 L 44.78 34.00 L 42.60 34.00 L 40.32 34.00 L 37.97 34.00 L 35.54 34.00 L 33.07 34.00 L 30.55 34.00 L 28.01 34.00 L 25.45 34.00 L 22.87 34.00 L 20.30 34.00 L 17.73 34.00 L 15.17 34.00 L 12.62 34.00 L 10.07 34.00 L 7.54 34.00 L 5.02 34.00 L 2.51 34.00 L 0.00 34.00"/>
<path d="M -0.00 17.60 L -2.62 17.60 L -5.25 17.60 L -7.90 17.60 L -10.56 17.60 L -13.26 17.60 L -15.99 17.60 L -18.74 17.60 L -21.53 17.60 L -24.35 17.60 L -27.18 17.60 L -30.03 17.60 L -32.88 17.60 L -35.71 17.60 L -38.52 17.60 L -41.28 17.60 L -43.99 17.60 L -46.61 17.60 L -49.13 17.60 L -51.54 17.60 L -53.82 17.60 L -55.93 17.60 L -57.88 17.60 L -59.64 17.60 L -61.20 17.60 L -62.55 17.60 L -63.66 17.60 L -64.54 17.60 L -65.17 17.60 L -65.56 17.60 L -65.68 17.60 L -65.56 17.60 L -65.17 17.60 L -64.54 17.60 L -63.66 17.60 L -62.55 17.60 L -61.20 17.60 L -59.64 17.60 L -57.88 17.60 L -55.93 17.60 L -53.82 17.60 L -51.54 17.60 L -49.13 17.60 L -46.61 17.60 L -43.99 17.60 L -41.28 17.60 L -38.52 17.60 L -35.71 17.60 L -32.88 17.60 L -30.03 17.60 L -27.18 17.60 L -24.35 17.60 L -21.53 17.60 L -18.74 17.60 L -15.99 17.60 L -13.26 17.60 L -10.56 17.60 L -7.90 17.60 L -5.25 17.60 L -2.62 17.60 L 0.00 17.60 L 2.62 17.60 L 5.25 17.60 L 7.90 17.60 L 10.56 17.60 L 13.26 17.60 L 15.99 17.60 L 18.74 17.60 L 21.53 17.60 L 24.35 17.60 L 27.18 17.60 L 30.03 17.60 L 32.88 17.60 L 35.71 17.60 L 38.52 17.60 L 41.28 17.60 L 43.99 17.60 L 46.61 17.60 L 49.13 17.60 L 51.54 17.60 L 53.82 17.60 L 55.93 17.60 L 57.88 17.60 L 59.64 17.60 L 61.20 17.60 L 62.55 17.60 L 63.66 17.60 L 64.54 17.60 L 65.17 17.60 L 65.56 17.60 L 65.68 17.60 L 65.56 17.60 L 65.17 17.60 L 64.54 17.60 L 63.66 17.60 L 62.55 17.60 L 61.20 17.60 L 59.64 17.60 L 57.88 17.60 L 55.93 17.60 L 53.82 17.60 L 51.54 17.60 L 49.13 17.60 L 46.61 17.60 L 43.99 17.60 L 41.28 17.60 L 38.52 17.60 L 35.71 17.60 L 32.88 17.60 L 30.03 17.60 L 27.18 17.60 L 24.35 17.60 L 21.53 17.60 L 18.74 17.60 L 15.99 17.60 L 13.26 17.60 L 10.56 17.60 L 7.90 17.60 L 5.25 17.60 L 2.62 17.60 L 0.00 17.60"/>
<path d="M -0.00 -0.00 L -2.64 -0.00 L -5.29 -0.00 L -7.97 -0.00 L -10.67 -0.00 L -13.41 -0.00 L -16.18 -0.00 L -19.00 -0.00 L -21.86 -0.00 L -24.75 -0.00 L -27.67 -0.00 L -30.62 -0.00 L -33.57 -0.00 L -36.52 -0.00 L -39.44 -0.00 L -42.33 -0.00 L -45.16 -0.00 L -47.91 -0.00 L -50.56 -0.00 L -53.09 -0.00 L -55.48 -0.00 L -57.71 -0.00 L -59.76 -0.00 L -61.62 -0.00 L -63.27 -0.00 L -64.69 -0.00 L -65.86 -0.00 L -66.79 -0.00 L -67.46 -0.00 L -67.86 -0.00 L -68.00 -0.00 L -67.86 -0.00 L -67.46 -0.00 L -66.79 -0.00 L -65.86 -0.00 L -64.69 -0.00 L -63.27 -0.00 L -61.62 -0.00 L -59.76 -0.00 L -57.71 -0.00 L -55.48 -0.00 L -53.09 -0.00 L -50.56 -0.00 L -47.91 -0.00 L -45.16 -0.00 L -42.33 -0.00 L -39.44 -0.00 L -36.52 -0.00 L -33.57 -0.00 L -30.62 -0.00 L -27.67 -0.00 L -24.75 -0.00 L -21.86 -0.00 L -19.00 -0.00 L -16.18 -0.00 L -13.41 -0.00 L -10.67 -0.00 L -7.97 -0.00 L -5.29 -0.00 L -2.64 -0.00 L 0.00 -0.00 L 2.64 -0.00 L 5.29 -0.00 L 7.97 -0.00 L 10.67 -0.00 L 13.41 -0.00 L 16.18 -0.00 L 19.00 -0.00 L 21.86 -0.00 L 24.75 -0.00 L 27.67 -0.00 L 30.62 -0.00 L 33.57 -0.00 L 36.52 -0.00 L 39.44 -0.00 L 42.33 -0.00 L 45.16 -0.00 L 47.91 -0.00 L 50.56 -0.00 L 53.09 -0.00 L 55.48 -0.00 L 57.71 -0.00 L 59.76 -0.00 L 61.62 -0.00 L 63.27 -0.00 L 64.69 -0.00 L 65.86 -0.00 L 66.79 -0.00 L 67.46 -0.00 L 67.86 -0.00 L 68.00 -0.00 L 67.86 -0.00 L 67.46 -0.00 L 66.79 -0.00 L 65.86 -0.00 L 64.69 -0.00 L 63.27 -0.00 L 61.62 -0.00 L 59.76 -0.00 L 57.71 -0.00 L 55.48 -0.00 L 53.09 -0.00 L 50.56 -0.00 L 47.91 -0.00 L 45.16 -0.00 L 42.33 -0.00 L 39.44 -0.00 L 36.52 -0.00 L 33.57 -0.00 L 30.62 -0.00 L 27.67 -0.00 L 24.75 -0.00 L 21.86 -0.00 L 19.00 -0.00 L 16.18 -0.00 L 13.41 -0.00 L 10.67 -0.00 L 7.97 -0.00 L 5.29 -0.00 L 2.64 -0.00 L 0.00 -0.00"/>
<path d="M -0.00 -17.60 L -2.62 -17.60 L -5.25 -17.60 L -7.90 -17.60 L -10.56 -17.60 L -13.26 -17.60 L -15.99 -17.60 L -18.74 -17.60 L -21.53 -17.60 L -24.35 -17.60 L -27.18 -17.60 L -30.03 -17.60 L -32.88 -17.60 L -35.71 -17.60 L -38.52 -17.60 L -41.28 -17.60 L -43.99 -17.60 L -46.61 -17.60 L -49.13 -17.60 L -51.54 -17.60 L -53.82 -17.60 L -55.93 -17.60 L -57.88 -17.60 L -59.64 -17.60 L -61.20 -17.60 L -62.55 -17.60 L -63.66 -17.60 L -64.54 -17.60 L -65.17 -17.60 L -65.56 -17.60 L -65.68 -17.60 L -65.56 -17.60 L -65.17 -17.60 L -64.54 -17.60 L -63.66 -17.60 L -62.55 -17.60 L -61.20 -17.60 L -59.64 -17.60 L -57.88 -17.60 L -55.93 -17.60 L -53.82 -17.60 L -51.54 -17.60 L -49.13 -17.60 L -46.61 -17.60 L -43.99 -17.60 L -41.28 -17.60 L -38.52 -17.60 L -35.71 -17.60 L -32.88 -17.60 L -30.03 -17.60 L -27.18 -17.60 L -24.35 -17.60 L -21.53 -17.60 L -18.74 -17.60 L -15.99 -17.60 L -13.26 -17.60 L -10.56 -17.60 L -7.90 -17.60 L -5.25 -17.60 L -2.62 -17.60 L 0.00 -17.60 L 2.62 -17.60 L 5.25 -17.60 L 7.90 -17.60 L 10.56 -17.60 L 13.26 -17.60 L 15.99 -17.60 L 18.74 -17.60 L 21.53 -17.60 L 24.35 -17.60 L 27.18 -17.60 L 30.03 -17.60 L 32.88 -17.60 L 35.71 -17.60 L 38.52 -17.60 L 41.28 -17.60 L 43.99 -17.60 L 46.61 -17.60 L 49.13 -17.60 L 51.54 -17.60 L 53.82 -17.60 L 55.93 -17.60 L 57.88 -17.60 L 59.64 -17.60 L 61.20 -17.60 L 62.55 -17.60 L 63.66 -17.60 L 64.54 -17.60 L 65.17 -17.60 L 65.56 -17.60 L 65.68 -17.60 L 65.56 -17.60 L 65.17 -17.60 L 64.54 -17.60 L 63.66 -17.60 L 62.55 -17.60 L 61.20 -17.60 L 59.64 -17.60 L 57.88 -17.60 L 55.93 -17.60 L 53.82 -17.60 L 51.54 -17.60 L 49.13 -17.60 L 46.61 -17.60 L 43.99 -17.60 L 41.28 -17.60 L 38.52 -17.60 L 35.71 -17.60 L 32.88 -17.60 L 30.03 -17.60 L 27.18 -17.60 L 24.35 -17.60 L 21.53 -17.60 L 18.74 -17.60 L 15.99 -17.60 L 13.26 -17.60 L 10.56 -17.60 L 7.90 -17.60 L 5.25 -17.60 L 2.62 -17.60 L 0.00 -17.60"/>
<path d="M -0.00 -34.00 L -2.51 -34.00 L -5.02 -34.00 L -7.54 -34.00 L -10.07 -34.00 L -12.62 -34.00 L -15.17 -34.00 L -17.73 -34.00 L -20.30 -34.00 L -22.87 -34.00 L -25.45 -34.00 L -28.01 -34.00 L -30.55 -34.00 L -33.07 -34.00 L -35.54 -34.00 L -37.97 -34.00 L -40.32 -34.00 L -42.60 -34.00 L -44.78 -34.00 L -46.85 -34.00 L -48.80 -34.00 L -50.61 -34.00 L -52.27 -34.00 L -53.77 -34.00 L -55.10 -34.00 L -56.24 -34.00 L -57.18 -34.00 L -57.92 -34.00 L -58.46 -34.00 L -58.78 -34.00 L -58.89 -34.00 L -58.78 -34.00 L -58.46 -34.00 L -57.92 -34.00 L -57.18 -34.00 L -56.24 -34.00 L -55.10 -34.00 L -53.77 -34.00 L -52.27 -34.00 L -50.61 -34.00 L -48.80 -34.00 L -46.85 -34.00 L -44.78 -34.00 L -42.60 -34.00 L -40.32 -34.00 L -37.97 -34.00 L -35.54 -34.00 L -33.07 -34.00 L -30.55 -34.00 L -28.01 -34.00 L -25.45 -34.00 L -22.87 -34.00 L -20.30 -34.00 L -17.73 -34.00 L -15.17 -34.00 L -12.62 -34.00 L -10.07 -34.00 L -7.54 -34.00 L -5.02 -34.00 L -2.51 -34.00 L 0.00 -34.00 L 2.51 -34.00 L 5.02 -34.00 L 7.54 -34.00 L 10.07 -34.00 L 12.62 -34.00 L 15.17 -34.00 L 17.73 -34.00 L 20.30 -34.00 L 22.87 -34.00 L 25.45 -34.00 L 28.01 -34.00 L 30.55 -34.00 L 33.07 -34.00 L 35.54 -34.00 L 37.97 -34.00 L 40.32 -34.00 L 42.60 -34.00 L 44.78 -34.00 L 46.85 -34.00 L 48.80 -34.00 L 50.61 -34.00 L 52.27 -34.00 L 53.77 -34.00 L 55.10 -34.00 L 56.24 -34.00 L 57.18 -34.00 L 57.92 -34.00 L 58.46 -34.00 L 58.78 -34.00 L 58.89 -34.00 L 58.78 -34.00 L 58.46 -34.00 L 57.92 -34.00 L 57.18 -34.00 L 56.24 -34.00 L 55.10 -34.00 L 53.77 -34.00 L 52.27 -34.00 L 50.61 -34.00 L 48.80 -34.00 L 46.85 -34.00 L 44.78 -34.00 L 42.60 -34.00 L 40.32 -34.00 L 37.97 -34.00 L 35.54 -34.00 L 33.07 -34.00 L 30.55 -34.00 L 28.01 -34.00 L 25.45 -34.00 L 22.87 -34.00 L 20.30 -34.00 L 17.73 -34.00 L 15.17 -34.00 L 12.62 -34.00 L 10.07 -34.00 L 7.54 -34.00 L 5.02 -34.00 L 2.51 -34.00 L 0.00 -34.00"/>
<path d="M -0.00 -52.09 L -2.06 -52.09 L -4.13 -52.09 L -6.19 -52.09 L -8.24 -52.09 L -10.28 -52.09 L -12.32 -52.09 L -14.34 -52.09 L -16.34 -52.09 L -18.32 -52.09 L -20.27 -52.09 L -22.19 -52.09 L -24.08 -52.09 L -25.92 -52.09 L -27.71 -52.09 L -29.44 -52.09 L -31.10 -52.09 L -32.69 -52.09 L -34.21 -52.09 L -35.63 -52.09 L -36.96 -52.09 L -38.19 -52.09 L -39.31 -52.09 L -40.32 -52.09 L -41.20 -52.09 L -41.96 -52.09 L -42.58 -52.09 L -43.07 -52.09 L -43.43 -52.09 L -43.64 -52.09 L -43.71 -52.09 L -43.64 -52.09 L -43.43 -52.09 L -43.07 -52.09 L -42.58 -52.09 L -41.96 -52.09 L -41.20 -52.09 L -40.32 -52.09 L -39.31 -52.09 L -38.19 -52.09 L -36.96 -52.09 L -35.63 -52.09 L -34.21 -52.09 L -32.69 -52.09 L -31.10 -52.09 L -29.44 -52.09 L -27.71 -52.09 L -25.92 -52.09 L -24.08 -52.09 L -22.19 -52.09 L -20.27 -52.09 L -18.32 -52.09 L -16.34 -52.09 L -14.34 -52.09 L -12.32 -52.09 L -10.28 -52.09 L -8.24 -52.09 L -6.19 -52.09 L -4.13 -52.09 L -2.06 -52.09 L 0.00 -52.09 L 2.06 -52.09 L 4.13 -52.09 L 6.19 -52.09 L 8.24 -52.09 L 10.28 -52.09 L 12.32 -52.09 L 14.34 -52.09 L 16.34 -52.09 L 18.32 -52.09 L 20.27 -52.09 L 22.19 -52.09 L 24.08 -52.09 L 25.92 -52.09 L 27.71 -52.09 L 29.44 -52.09 L 31.10 -52.09 L 32.69 -52.09 L 34.21 -52.09 L 35.63 -52.09 L 36.96 -52.09 L 38.19 -52.09 L 39.31 -52.09 L 40.32 -52.09 L 41.20 -52.09 L 41.96 -52.09 L 42.58 -52.09 L 43.07 -52.09 L 43.43 -52.09 L 43.64 -52.09 L 43.71 -52.09 L 43.64 -52.09 L 43.43 -52.09 L 43.07 -52.09 L 42.58 -52.09 L 41.96 -52.09 L 41.20 -52.09 L 40.32 -52.09 L 39.31 -52.09 L 38.19 -52.09 L 36.96 -52.09 L 35.63 -52.09 L 34.21 -52.09 L 32.69 -52.09 L 31.10 -52.09 L 29.44 -52.09 L 27.71 -52.09 L 25.92 -52.09 L 24.08 -52.09 L 22.19 -52.09 L 20.27 -52.09 L 18.32 -52.09 L 16.34 -52.09 L 14.34 -52.09 L 12.32 -52.09 L 10.28 -52.09 L 8.24 -52.09 L 6.19 -52.09 L 4.13 -52.09 L 2.06 -52.09 L 0.00 -52.09"/>
<path d="M -0.00 68.00 L -2.06 67.97 L -4.12 67.87 L -6.18 67.70 L -8.23 67.46 L -10.27 67.16 L -12.30 66.80 L -14.32 66.36 L -16.32 65.86 L -18.30 65.30 L -20.27 64.67 L -22.21 63.98 L -24.13 63.22 L -26.02 62.41 L -27.89 61.53 L -29.73 60.59 L -31.53 59.59 L -33.30 58.53 L -35.04 57.41 L -36.74 56.24 L -38.41 55.01 L -40.03 53.73 L -41.61 52.39 L -43.15 51.01 L -44.64 49.57 L -46.09 48.08 L -47.50 46.55 L -48.85 44.97 L -50.15 43.34 L -51.41 41.68 L -52.61 39.97 L -53.76 38.22 L -54.86 36.44 L -55.90 34.61 L -56.89 32.76 L -57.82 30.87 L -58.69 28.95 L -59.51 27.01 L -60.27 25.03 L -60.97 23.03 L -61.61 21.01 L -62.19 18.97 L -62.71 16.91 L -63.17 14.83 L -63.57 12.74 L -63.91 10.64 L -64.19 8.52 L -64.41 6.40 L -64.56 4.27 L -64.65 2.14 L -64.69 -0.00 L -64.65 -2.14 L -64.56 -4.27 L -64.41 -6.40 L -64.19 -8.52 L -63.91 -10.64 L -63.57 -12.74 L -63.17 -14.83 L -62.71 -16.91 L -62.19 -18.97 L -61.61 -21.01 L -60.97 -23.03 L -60.27 -25.03 L -59.51 -27.01 L -58.69 -28.95 L -57.82 -30.87 L -56.89 -32.76 L -55.90 -34.61 L -54.86 -36.44 L -53.76 -38.22 L -52.61 -39.97 L -51.41 -41.68 L -50.15 -43.34 L -48.85 -44.97 L -47.50 -46.55 L -46.09 -48.08 L -44.64 -49.57 L -43.15 -51.01 L -41.61 -52.39 L -40.03 -53.73 L -38.41 -55.01 L -36.74 -56.24 L -35.04 -57.41 L -33.30 -58.53 L -31.53 -59.59 L -29.73 -60.59 L -27.89 -61.53 L -26.02 -62.41 L -24.13 -63.22 L -22.21 -63.98 L -20.27 -64.67 L -18.30 -65.30 L -16.32 -65.86 L -14.32 -66.36 L -12.30 -66.80 L -10.27 -67.16 L -8.23 -67.46 L -6.18 -67.70 L -4.12 -67.87 L -2.06 -67.97 L -0.00 -68.00"/>
<path d="M -0.00 68.00 L -1.51 67.97 L -3.02 67.87 L -4.52 67.70 L -6.02 67.46 L -7.50 67.16 L -8.97 66.80 L -10.43 66.36 L -11.87 65.86 L -13.30 65.30 L -14.70 64.67 L -16.08 63.98 L -17.43 63.22 L -18.75 62.41 L -20.05 61.53 L -21.32 60.59 L -22.55 59.59 L -23.75 58.53 L -24.92 57.41 L -26.05 56.24 L -27.14 55.01 L -28.20 53.73 L -29.21 52.39 L -30.19 51.01 L -31.13 49.57 L -32.03 48.08 L -32.89 46.55 L -33.71 44.97 L -34.49 43.34 L -35.22 41.68 L -35.92 39.97 L -36.58 38.22 L -37.20 36.44 L -37.78 34.61 L -38.32 32.76 L -38.83 30.87 L -39.30 28.95 L -39.73 27.01 L -40.12 25.03 L -40.49 23.03 L -40.81 21.01 L -41.11 18.97 L -41.37 16.91 L -41.59 14.83 L -41.79 12.74 L -41.96 10.64 L -42.09 8.52 L -42.20 6.40 L -42.27 4.27 L -42.31 2.14 L -42.33 -0.00 L -42.31 -2.14 L -42.27 -4.27 L -42.20 -6.40 L -42.09 -8.52 L -41.96 -10.64 L -41.79 -12.74 L -41.59 -14.83 L -41.37 -16.91 L -41.11 -18.97 L -40.81 -21.01 L -40.49 -23.03 L -40.12 -25.03 L -39.73 -27.01 L -39.30 -28.95 L -38.83 -30.87 L -38.32 -32.76 L -37.78 -34.61 L -37.20 -36.44 L -36.58 -38.22 L -35.92 -39.97 L -35.22 -41.68 L -34.49 -43.34 L -33.71 -44.97 L -32.89 -46.55 L -32.03 -48.08 L -31.13 -49.57 L -30.19 -51.01 L -29.21 -52.39 L -28.20 -53.73 L -27.14 -55.01 L -26.05 -56.24 L -24.92 -57.41 L -23.75 -58.53 L -22.55 -59.59 L -21.32 -60.59 L -20.05 -61.53 L -18.75 -62.41 L -17.43 -63.22 L -16.08 -63.98 L -14.70 -64.67 L -13.30 -65.30 L -11.87 -65.86 L -10.43 -66.36 L -8.97 -66.80 L -7.50 -67.16 L -6.02 -67.46 L -4.52 -67.70 L -3.02 -67.87 L -1.51 -67.97 L -0.00 -68.00"/>
<path d="M -0.00 68.00 L -0.55 67.97 L -1.10 67.87 L -1.65 67.70 L -2.20 67.46 L -2.74 67.16 L -3.27 66.80 L -3.80 66.36 L -4.32 65.86 L -4.83 65.30 L -5.33 64.67 L -5.82 63.98 L -6.29 63.22 L -6.75 62.41 L -7.20 61.53 L -7.64 60.59 L -8.06 59.59 L -8.46 58.53 L -8.84 57.41 L -9.21 56.24 L -9.57 55.01 L -9.90 53.73 L -10.22 52.39 L -10.52 51.01 L -10.80 49.57 L -11.06 48.08 L -11.31 46.55 L -11.54 44.97 L -11.75 43.34 L -11.95 41.68 L -12.13 39.97 L -12.29 38.22 L -12.44 36.44 L -12.57 34.61 L -12.70 32.76 L -12.80 30.87 L -12.90 28.95 L -12.99 27.01 L -13.06 25.03 L -13.13 23.03 L -13.18 21.01 L -13.23 18.97 L -13.27 16.91 L -13.31 14.83 L -13.33 12.74 L -13.36 10.64 L -13.37 8.52 L -13.39 6.40 L -13.40 4.27 L -13.40 2.14 L -13.41 -0.00 L -13.40 -2.14 L -13.40 -4.27 L -13.39 -6.40 L -13.37 -8.52 L -13.36 -10.64 L -13.33 -12.74 L -13.31 -14.83 L -13.27 -16.91 L -13.23 -18.97 L -13.18 -21.01 L -13.13 -23.03 L -13.06 -25.03 L -12.99 -27.01 L -12.90 -28.95 L -12.80 -30.87 L -12.70 -32.76 L -12.57 -34.61 L -12.44 -36.44 L -12.29 -38.22 L -12.13 -39.97 L -11.95 -41.68 L -11.75 -43.34 L -11.54 -44.97 L -11.31 -46.55 L -11.06 -48.08 L -10.80 -49.57 L -10.52 -51.01 L -10.22 -52.39 L -9.90 -53.73 L -9.57 -55.01 L -9.21 -56.24 L -8.84 -57.41 L -8.46 -58.53 L -8.06 -59.59 L -7.64 -60.59 L -7.20 -61.53 L -6.75 -62.41 L -6.29 -63.22 L -5.82 -63.98 L -5.33 -64.67 L -4.83 -65.30 L -4.32 -65.86 L -3.80 -66.36 L -3.27 -66.80 L -2.74 -67.16 L -2.20 -67.46 L -1.65 -67.70 L -1.10 -67.87 L -0.55 -67.97 L -0.00 -68.00"/>
<path d="M 0.00 68.00 L 0.55 67.97 L 1.10 67.87 L 1.65 67.70 L 2.20 67.46 L 2.74 67.16 L 3.27 66.80 L 3.80 66.36 L 4.32 65.86 L 4.83 65.30 L 5.33 64.67 L 5.82 63.98 L 6.29 63.22 L 6.75 62.41 L 7.20 61.53 L 7.64 60.59 L 8.06 59.59 L 8.46 58.53 L 8.84 57.41 L 9.21 56.24 L 9.57 55.01 L 9.90 53.73 L 10.22 52.39 L 10.52 51.01 L 10.80 49.57 L 11.06 48.08 L 11.31 46.55 L 11.54 44.97 L 11.75 43.34 L 11.95 41.68 L 12.13 39.97 L 12.29 38.22 L 12.44 36.44 L 12.57 34.61 L 12.70 32.76 L 12.80 30.87 L 12.90 28.95 L 12.99 27.01 L 13.06 25.03 L 13.13 23.03 L 13.18 21.01 L 13.23 18.97 L 13.27 16.91 L 13.31 14.83 L 13.33 12.74 L 13.36 10.64 L 13.37 8.52 L 13.39 6.40 L 13.40 4.27 L 13.40 2.14 L 13.41 -0.00 L 13.40 -2.14 L 13.40 -4.27 L 13.39 -6.40 L 13.37 -8.52 L 13.36 -10.64 L 13.33 -12.74 L 13.31 -14.83 L 13.27 -16.91 L 13.23 -18.97 L 13.18 -21.01 L 13.13 -23.03 L 13.06 -25.03 L 12.99 -27.01 L 12.90 -28.95 L 12.80 -30.87 L 12.70 -32.76 L 12.57 -34.61 L 12.44 -36.44 L 12.29 -38.22 L 12.13 -39.97 L 11.95 -41.68 L 11.75 -43.34 L 11.54 -44.97 L 11.31 -46.55 L 11.06 -48.08 L 10.80 -49.57 L 10.52 -51.01 L 10.22 -52.39 L 9.90 -53.73 L 9.57 -55.01 L 9.21 -56.24 L 8.84 -57.41 L 8.46 -58.53 L 8.06 -59.59 L 7.64 -60.59 L 7.20 -61.53 L 6.75 -62.41 L 6.29 -63.22 L 5.82 -63.98 L 5.33 -64.67 L 4.83 -65.30 L 4.32 -65.86 L 3.80 -66.36 L 3.27 -66.80 L 2.74 -67.16 L 2.20 -67.46 L 1.65 -67.70 L 1.10 -67.87 L 0.55 -67.97 L 0.00 -68.00"/>
<path d="M 0.00 68.00 L 1.51 67.97 L 3.02 67.87 L 4.52 67.70 L 6.02 67.46 L 7.50 67.16 L 8.97 66.80 L 10.43 66.36 L 11.87 65.86 L 13.30 65.30 L 14.70 64.67 L 16.08 63.98 L 17.43 63.22 L 18.75 62.41 L 20.05 61.53 L 21.32 60.59 L 22.55 59.59 L 23.75 58.53 L 24.92 57.41 L 26.05 56.24 L 27.14 55.01 L 28.20 53.73 L 29.21 52.39 L 30.19 51.01 L 31.13 49.57 L 32.03 48.08 L 32.89 46.55 L 33.71 44.97 L 34.49 43.34 L 35.22 41.68 L 35.92 39.97 L 36.58 38.22 L 37.20 36.44 L 37.78 34.61 L 38.32 32.76 L 38.83 30.87 L 39.30 28.95 L 39.73 27.01 L 40.12 25.03 L 40.49 23.03 L 40.81 21.01 L 41.11 18.97 L 41.37 16.91 L 41.59 14.83 L 41.79 12.74 L 41.96 10.64 L 42.09 8.52 L 42.20 6.40 L 42.27 4.27 L 42.31 2.14 L 42.33 -0.00 L 42.31 -2.14 L 42.27 -4.27 L 42.20 -6.40 L 42.09 -8.52 L 41.96 -10.64 L 41.79 -12.74 L 41.59 -14.83 L 41.37 -16.91 L 41.11 -18.97 L 40.81 -21.01 L 40.49 -23.03 L 40.12 -25.03 L 39.73 -27.01 L 39.30 -28.95 L 38.83 -30.87 L 38.32 -32.76 L 37.78 -34.61 L 37.20 -36.44 L 36.58 -38.22 L 35.92 -39.97 L 35.22 -41.68 L 34.49 -43.34 L 33.71 -44.97 L 32.89 -46.55 L 32.03 -48.08 L 31.13 -49.57 L 30.19 -51.01 L 29.21 -52.39 L 28.20 -53.73 L 27.14 -55.01 L 26.05 -56.24 L 24.92 -57.41 L 23.75 -58.53 L 22.55 -59.59 L 21.32 -60.59 L 20.05 -61.53 L 18.75 -62.41 L 17.43 -63.22 L 16.08 -63.98 L 14.70 -64.67 L 13.30 -65.30 L 11.87 -65.86 L 10.43 -66.36 L 8.97 -66.80 L 7.50 -67.16 L 6.02 -67.46 L 4.52 -67.70 L 3.02 -67.87 L 1.51 -67.97 L 0.00 -68.00"/>
<path d="M 0.00 68.00 L 2.06 67.97 L 4.12 67.87 L 6.18 67.70 L 8.23 67.46 L 10.27 67.16 L 12.30 66.80 L 14.32 66.36 L 16.32 65.86 L 18.30 65.30 L 20.27 64.67 L 22.21 63.98 L 24.13 63.22 L 26.02 62.41 L 27.89 61.53 L 29.73 60.59 L 31.53 59.59 L 33.30 58.53 L 35.04 57.41 L 36.74 56.24 L 38.41 55.01 L 40.03 53.73 L 41.61 52.39 L 43.15 51.01 L 44.64 49.57 L 46.09 48.08 L 47.50 46.55 L 48.85 44.97 L 50.15 43.34 L 51.41 41.68 L 52.61 39.97 L 53.76 38.22 L 54.86 36.44 L 55.90 34.61 L 56.89 32.76 L 57.82 30.87 L 58.69 28.95 L 59.51 27.01 L 60.27 25.03 L 60.97 23.03 L 61.61 21.01 L 62.19 18.97 L 62.71 16.91 L 63.17 14.83 L 63.57 12.74 L 63.91 10.64 L 64.19 8.52 L 64.41 6.40 L 64.56 4.27 L 64.65 2.14 L 64.69 -0.00 L 64.65 -2.14 L 64.56 -4.27 L 64.41 -6.40 L 64.19 -8.52 L 63.91 -10.64 L 63.57 -12.74 L 63.17 -14.83 L 62.71 -16.91 L 62.19 -18.97 L 61.61 -21.01 L 60.97 -23.03 L 60.27 -25.03 L 59.51 -27.01 L 58.69 -28.95 L 57.82 -30.87 L 56.89 -32.76 L 55.90 -34.61 L 54.86 -36.44 L 53.76 -38.22 L 52.61 -39.97 L 51.41 -41.68 L 50.15 -43.34 L 48.85 -44.97 L 47.50 -46.55 L 46.09 -48.08 L 44.64 -49.57 L 43.15 -51.01 L 41.61 -52.39 L 40.03 -53.73 L 38.41 -55.01 L 36.74 -56.24 L 35.04 -57.41 L 33.30 -58.53 L 31.53 -59.59 L 29.73 -60.59 L 27.89 -61.53 L 26.02 -62.41 L 24.13 -63.22 L 22.21 -63.98 L 20.27 -64.67 L 18.30 -65.30 L 16.32 -65.86 L 14.32 -66.36 L 12.30 -66.80 L 10.27 -67.16 L 8.23 -67.46 L 6.18 -67.70 L 4.12 -67.87 L 2.06 -67.97 L 0.00 -68.00"/>

  </g>
</g>
</svg>
